<?xml version="1.0" encoding="utf-8"?>
<!-- Generator: Adobe Illustrator 25.3.1, SVG Export Plug-In . SVG Version: 6.00 Build 0)  -->
<svg version="1.1" id="Layer_1" xmlns="http://www.w3.org/2000/svg" xmlns:xlink="http://www.w3.org/1999/xlink" x="0px" y="0px"
	 viewBox="0 0 100 100" style="enable-background:new 0 0 100 100;" xml:space="preserve">
<path d="M43.5,56.8l-7.1-12.3l-1.7-0.1c0.4-2.7,2.7-4.7,5.3-4.7c5.3,0,10.5,0,15.8,0c1.4,0,2.8,0.5,3.8,1.5c1.5,1.3,2.6,3,3.3,4.9
	c1,2.8,1.9,5.7,2.7,8.5c0.4,1.4-0.3,2.2-1.8,2.2H44C43.8,56.9,43.7,56.8,43.5,56.8z M47.2,48.9H52v-4.4h-7.4L47.2,48.9z M46,49
	l-2.6-4.5h-5.8l2.6,4.5H46z"/>
<path d="M34.5,49h3.9l4.5,7.7c-4.1,0.4-7.9-2.6-8.3-6.7C34.5,49.7,34.4,49.4,34.5,49z"/>
<path d="M40.5,59.1h5.3c-0.1,1.2-1.1,2.1-2.3,2.1C42.2,61.4,40.8,60.5,40.5,59.1z"/>
<path d="M56.9,59.1h5.2c-0.1,1.2-1.1,2.1-2.2,2.1C58.5,61.4,57.2,60.5,56.9,59.1z"/>
</svg>
