<svg xmlns="http://www.w3.org/2000/svg" xmlns:xlink="http://www.w3.org/1999/xlink" viewBox="0 0 35.38 30.09"><defs><style>.cls-1{fill:url(#linear-gradient);}.cls-2{fill:none;stroke:#231f20;stroke-miterlimit:10;stroke-width:0.25px;stroke-dasharray:1;}.cls-3{fill:#231f20;}</style><linearGradient id="linear-gradient" x1="23.38" y1="-8.38" x2="23.21" y2="-7.68" gradientUnits="userSpaceOnUse"><stop offset="0" stop-color="#fff"/><stop offset="0.97"/></linearGradient></defs><g id="Layer_2" data-name="Layer 2"><g id="city-scale"><path class="cls-1" d="M9.43,7.94H0V0H9.43ZM22.18,0H12.75V7.94h9.43ZM35.09,0H25.66V7.94h9.43ZM9.43,11H0V19H9.43Zm12.75,0H12.75V19h9.43Zm12.91,0H25.66V19h9.43ZM9.43,22H0V30H9.43Zm12.75,0H12.75V30h9.43Zm12.91,0H25.66V30h9.43Z"/><polyline class="cls-2" points="35.09 9.41 24.02 9.41 24.02 0"/><polyline class="cls-2" points="14.93 20.5 23.38 20.5 23.38 29.96 24.7 29.96 24.7 15.86"/><polygon class="cls-3" points="11.08 27.67 11.66 27.09 10.51 27.09 11.08 27.67"/><polygon class="cls-3" points="24.7 15.94 24.12 16.51 25.27 16.51 24.7 15.94"/><polygon class="cls-3" points="35.38 9.41 34.8 8.84 34.8 9.99 35.38 9.41"/><polyline class="cls-2" points="0 9.41 11.08 9.41 11.08 27.38"/></g></g></svg>